<mxfile host="app.diagrams.net" modified="2022-11-17T08:38:06.280Z" agent="5.0 (Windows NT 10.0; Win64; x64) AppleWebKit/537.36 (KHTML, like Gecko) Chrome/107.0.0.0 Safari/537.36 Edg/107.0.1418.42" etag="DVXWUE13mEiXWg0Cs48v" version="20.5.3" type="github">
  <diagram id="PZmiGoy-iheWrj0gc_kR" name="Seite-1">
    <mxGraphModel dx="1185" dy="628" grid="1" gridSize="10" guides="1" tooltips="1" connect="1" arrows="1" fold="1" page="1" pageScale="1" pageWidth="827" pageHeight="1169" math="0" shadow="0">
      <root>
        <mxCell id="0" />
        <mxCell id="1" parent="0" />
        <mxCell id="eczX6Kex-Wwm9dRUbGsX-1" value="Pruned training for animation styles:&amp;nbsp;&lt;a href=&quot;https://huggingface.co/nitrosocke&quot;&gt;nitrosocke (Nitrosocke) (huggingface.co)&lt;/a&gt;&lt;br&gt;Making videos and animations:&amp;nbsp;&lt;a href=&quot;https://www.youtube.com/watch?v=QBWVHCYZ_Zs&amp;amp;t=1378s&quot;&gt;(341) We Put TOM HOLLAND into the SPIDERVERSE - YouTube&lt;/a&gt;" style="text;whiteSpace=wrap;html=1;" vertex="1" parent="1">
          <mxGeometry x="30" y="20" width="520" height="40" as="geometry" />
        </mxCell>
        <mxCell id="eczX6Kex-Wwm9dRUbGsX-2" value="" style="rounded=1;whiteSpace=wrap;html=1;" vertex="1" parent="1">
          <mxGeometry x="80" y="220" width="90" height="30" as="geometry" />
        </mxCell>
        <mxCell id="eczX6Kex-Wwm9dRUbGsX-3" value="" style="rounded=1;whiteSpace=wrap;html=1;" vertex="1" parent="1">
          <mxGeometry x="180" y="220" width="90" height="30" as="geometry" />
        </mxCell>
        <mxCell id="eczX6Kex-Wwm9dRUbGsX-4" value="" style="rounded=1;whiteSpace=wrap;html=1;" vertex="1" parent="1">
          <mxGeometry x="280" y="220" width="90" height="30" as="geometry" />
        </mxCell>
        <mxCell id="eczX6Kex-Wwm9dRUbGsX-5" value="" style="rounded=1;whiteSpace=wrap;html=1;" vertex="1" parent="1">
          <mxGeometry x="380" y="220" width="90" height="30" as="geometry" />
        </mxCell>
        <mxCell id="eczX6Kex-Wwm9dRUbGsX-7" value="" style="rounded=1;whiteSpace=wrap;html=1;" vertex="1" parent="1">
          <mxGeometry x="480" y="220" width="90" height="30" as="geometry" />
        </mxCell>
        <mxCell id="eczX6Kex-Wwm9dRUbGsX-8" value="" style="rounded=1;whiteSpace=wrap;html=1;" vertex="1" parent="1">
          <mxGeometry x="580" y="220" width="90" height="30" as="geometry" />
        </mxCell>
        <mxCell id="eczX6Kex-Wwm9dRUbGsX-9" value="" style="rounded=1;whiteSpace=wrap;html=1;" vertex="1" parent="1">
          <mxGeometry x="680" y="220" width="90" height="30" as="geometry" />
        </mxCell>
        <mxCell id="eczX6Kex-Wwm9dRUbGsX-10" value="" style="rounded=1;whiteSpace=wrap;html=1;" vertex="1" parent="1">
          <mxGeometry x="780" y="220" width="90" height="30" as="geometry" />
        </mxCell>
        <mxCell id="eczX6Kex-Wwm9dRUbGsX-11" value="" style="rounded=1;whiteSpace=wrap;html=1;" vertex="1" parent="1">
          <mxGeometry x="80" y="260" width="90" height="30" as="geometry" />
        </mxCell>
        <mxCell id="eczX6Kex-Wwm9dRUbGsX-12" value="" style="rounded=1;whiteSpace=wrap;html=1;" vertex="1" parent="1">
          <mxGeometry x="180" y="260" width="90" height="30" as="geometry" />
        </mxCell>
        <mxCell id="eczX6Kex-Wwm9dRUbGsX-13" value="" style="rounded=1;whiteSpace=wrap;html=1;" vertex="1" parent="1">
          <mxGeometry x="280" y="260" width="90" height="30" as="geometry" />
        </mxCell>
        <mxCell id="eczX6Kex-Wwm9dRUbGsX-14" value="" style="rounded=1;whiteSpace=wrap;html=1;" vertex="1" parent="1">
          <mxGeometry x="380" y="260" width="90" height="30" as="geometry" />
        </mxCell>
        <mxCell id="eczX6Kex-Wwm9dRUbGsX-15" value="" style="rounded=1;whiteSpace=wrap;html=1;" vertex="1" parent="1">
          <mxGeometry x="480" y="260" width="90" height="30" as="geometry" />
        </mxCell>
        <mxCell id="eczX6Kex-Wwm9dRUbGsX-16" value="" style="rounded=1;whiteSpace=wrap;html=1;" vertex="1" parent="1">
          <mxGeometry x="580" y="260" width="90" height="30" as="geometry" />
        </mxCell>
        <mxCell id="eczX6Kex-Wwm9dRUbGsX-17" value="" style="rounded=1;whiteSpace=wrap;html=1;" vertex="1" parent="1">
          <mxGeometry x="680" y="260" width="90" height="30" as="geometry" />
        </mxCell>
        <mxCell id="eczX6Kex-Wwm9dRUbGsX-18" value="" style="rounded=1;whiteSpace=wrap;html=1;" vertex="1" parent="1">
          <mxGeometry x="780" y="260" width="90" height="30" as="geometry" />
        </mxCell>
        <mxCell id="eczX6Kex-Wwm9dRUbGsX-19" value="" style="rounded=1;whiteSpace=wrap;html=1;" vertex="1" parent="1">
          <mxGeometry x="80" y="300" width="90" height="30" as="geometry" />
        </mxCell>
        <mxCell id="eczX6Kex-Wwm9dRUbGsX-20" value="" style="rounded=1;whiteSpace=wrap;html=1;" vertex="1" parent="1">
          <mxGeometry x="180" y="300" width="90" height="30" as="geometry" />
        </mxCell>
        <mxCell id="eczX6Kex-Wwm9dRUbGsX-21" value="" style="rounded=1;whiteSpace=wrap;html=1;" vertex="1" parent="1">
          <mxGeometry x="280" y="300" width="90" height="30" as="geometry" />
        </mxCell>
        <mxCell id="eczX6Kex-Wwm9dRUbGsX-22" value="" style="rounded=1;whiteSpace=wrap;html=1;" vertex="1" parent="1">
          <mxGeometry x="380" y="300" width="90" height="30" as="geometry" />
        </mxCell>
        <mxCell id="eczX6Kex-Wwm9dRUbGsX-23" value="" style="rounded=1;whiteSpace=wrap;html=1;" vertex="1" parent="1">
          <mxGeometry x="480" y="300" width="90" height="30" as="geometry" />
        </mxCell>
        <mxCell id="eczX6Kex-Wwm9dRUbGsX-24" value="" style="rounded=1;whiteSpace=wrap;html=1;" vertex="1" parent="1">
          <mxGeometry x="580" y="300" width="90" height="30" as="geometry" />
        </mxCell>
        <mxCell id="eczX6Kex-Wwm9dRUbGsX-25" value="" style="rounded=1;whiteSpace=wrap;html=1;" vertex="1" parent="1">
          <mxGeometry x="680" y="300" width="90" height="30" as="geometry" />
        </mxCell>
        <mxCell id="eczX6Kex-Wwm9dRUbGsX-26" value="" style="rounded=1;whiteSpace=wrap;html=1;" vertex="1" parent="1">
          <mxGeometry x="780" y="300" width="90" height="30" as="geometry" />
        </mxCell>
        <mxCell id="eczX6Kex-Wwm9dRUbGsX-27" value="" style="rounded=1;whiteSpace=wrap;html=1;" vertex="1" parent="1">
          <mxGeometry x="80" y="340" width="90" height="30" as="geometry" />
        </mxCell>
        <mxCell id="eczX6Kex-Wwm9dRUbGsX-28" value="" style="rounded=1;whiteSpace=wrap;html=1;" vertex="1" parent="1">
          <mxGeometry x="180" y="340" width="90" height="30" as="geometry" />
        </mxCell>
        <mxCell id="eczX6Kex-Wwm9dRUbGsX-29" value="" style="rounded=1;whiteSpace=wrap;html=1;" vertex="1" parent="1">
          <mxGeometry x="280" y="340" width="90" height="30" as="geometry" />
        </mxCell>
        <mxCell id="eczX6Kex-Wwm9dRUbGsX-30" value="" style="rounded=1;whiteSpace=wrap;html=1;" vertex="1" parent="1">
          <mxGeometry x="380" y="340" width="90" height="30" as="geometry" />
        </mxCell>
        <mxCell id="eczX6Kex-Wwm9dRUbGsX-31" value="" style="rounded=1;whiteSpace=wrap;html=1;" vertex="1" parent="1">
          <mxGeometry x="480" y="340" width="90" height="30" as="geometry" />
        </mxCell>
        <mxCell id="eczX6Kex-Wwm9dRUbGsX-32" value="" style="rounded=1;whiteSpace=wrap;html=1;" vertex="1" parent="1">
          <mxGeometry x="580" y="340" width="90" height="30" as="geometry" />
        </mxCell>
        <mxCell id="eczX6Kex-Wwm9dRUbGsX-33" value="" style="rounded=1;whiteSpace=wrap;html=1;" vertex="1" parent="1">
          <mxGeometry x="680" y="340" width="90" height="30" as="geometry" />
        </mxCell>
        <mxCell id="eczX6Kex-Wwm9dRUbGsX-34" value="" style="rounded=1;whiteSpace=wrap;html=1;" vertex="1" parent="1">
          <mxGeometry x="780" y="340" width="90" height="30" as="geometry" />
        </mxCell>
        <mxCell id="eczX6Kex-Wwm9dRUbGsX-35" value="&lt;b&gt;&amp;nbsp;CardTitle&amp;nbsp; &amp;nbsp;--&amp;gt;&amp;nbsp; SHA-256&amp;nbsp; &amp;nbsp;--&amp;gt;&amp;nbsp; &amp;nbsp;CardStats &lt;/b&gt;(Cost, Power, Effects, Image, ...)" style="text;html=1;align=center;verticalAlign=middle;resizable=0;points=[];autosize=1;strokeColor=none;fillColor=none;" vertex="1" parent="1">
          <mxGeometry x="30" y="110" width="430" height="30" as="geometry" />
        </mxCell>
      </root>
    </mxGraphModel>
  </diagram>
</mxfile>
